<?xml version="1.0" standalone="no"?>
<!DOCTYPE svg PUBLIC "-//W3C//DTD SVG 20010904//EN"
 "http://www.w3.org/TR/2001/REC-SVG-20010904/DTD/svg10.dtd">
<svg version="1.0" xmlns="http://www.w3.org/2000/svg"
 width="700.000000pt" height="700.000000pt" viewBox="0 0 700.000000 700.000000"
 preserveAspectRatio="xMidYMid meet">
<metadata>
Created by potrace 1.14, written by Peter Selinger 2001-2017
</metadata>
<g transform="translate(0.000000,700.000000) scale(0.100000,-0.100000)"
fill="#000000" stroke="none">
<path d="M1550 6886 c-111 -17 -189 -40 -269 -81 -132 -66 -245 -170 -320
-294 -39 -65 -88 -208 -96 -282 -4 -30 -8 -67 -10 -82 -3 -21 -77 -102 -308
-332 -252 -252 -309 -314 -331 -362 -43 -89 -79 -241 -101 -422 -9 -76 -18
-329 -19 -511 0 -213 14 -270 80 -337 68 -67 144 -70 214 -7 52 47 80 117 87
217 3 45 14 108 25 140 71 219 359 510 735 745 134 84 193 113 212 107 36 -11
87 -16 172 -16 267 1 522 149 651 379 29 50 32 53 45 36 19 -26 16 -116 -7
-184 -39 -116 -115 -243 -264 -439 -145 -191 -205 -276 -259 -361 -71 -115
-159 -308 -194 -425 -18 -62 -54 -235 -60 -290 -12 -108 -6 -283 12 -360 8
-38 18 -81 21 -94 27 -123 155 -331 262 -425 42 -37 119 -96 125 -96 3 0 33
-16 67 -35 124 -70 302 -108 475 -100 95 5 251 36 320 66 17 7 32 13 35 14 47
13 273 141 290 164 3 4 16 14 29 23 47 33 173 155 232 224 52 63 68 74 122 94
34 12 97 35 140 51 43 16 81 29 83 29 2 0 4 -309 4 -686 l0 -687 -22 -35 c-30
-49 -30 -134 0 -186 22 -37 22 -38 22 -565 l0 -527 -202 0 c-112 1 -222 -1
-246 -5 -83 -12 -135 -94 -113 -176 10 -37 50 -84 80 -95 12 -4 30 -87 37
-178 l5 -65 -55 -59 c-30 -33 -59 -71 -64 -86 -26 -73 16 -160 87 -181 60 -18
103 -4 162 49 66 60 61 58 149 74 79 14 175 16 275 4 67 -8 69 -10 93 -56 59
-115 227 -98 261 26 11 42 11 42 -97 364 l-85 255 -1 590 -2 590 25 48 c30 59
30 115 -2 177 l-23 45 1 739 0 739 105 34 105 35 70 -36 c68 -34 172 -90 325
-173 41 -22 156 -84 255 -138 99 -53 207 -112 240 -130 33 -18 89 -47 124 -65
59 -31 62 -34 45 -47 -11 -8 -28 -22 -39 -31 -11 -9 -42 -35 -70 -57 -27 -22
-61 -50 -75 -62 -14 -11 -172 -141 -353 -288 -180 -146 -334 -276 -342 -288
-14 -22 -20 -47 -30 -127 -5 -45 -11 -94 -20 -160 -3 -19 -7 -54 -10 -77 -3
-24 -7 -60 -10 -80 -31 -243 -36 -293 -31 -319 2 -16 5 -32 5 -36 1 -4 15 -23
32 -42 64 -74 174 -57 231 35 21 33 108 59 196 59 68 0 77 -6 122 -73 81 -121
260 -68 260 77 0 43 -12 64 -205 353 -113 169 -201 309 -196 313 4 3 28 22 52
42 41 34 282 231 493 401 49 40 100 82 115 94 123 103 152 123 172 123 136 0
231 150 170 268 -41 80 -112 118 -198 107 -46 -5 -55 -2 -203 78 -85 46 -186
101 -225 121 -316 170 -445 241 -445 246 0 13 367 19 495 7 200 -19 381 -58
570 -123 342 -120 545 -183 655 -207 257 -54 409 -25 460 88 71 157 -37 460
-339 945 -144 231 -336 458 -536 636 -371 328 -821 521 -1310 560 -425 34
-882 -65 -1170 -253 -360 -237 -659 -682 -730 -1090 -22 -129 -27 -323 -10
-408 17 -87 49 -194 75 -251 l29 -64 -45 -39 c-62 -55 -167 -116 -244 -142
-98 -33 -226 -32 -302 3 -168 78 -235 260 -188 518 11 64 75 265 90 285 4 6
22 37 40 70 60 109 182 278 316 435 275 321 381 487 448 698 124 392 -44 863
-396 1109 -134 94 -280 153 -458 184 -145 26 -473 34 -600 15z"/>
</g>
</svg>
